<?xml version="1.0" standalone="no"?>
<!DOCTYPE svg PUBLIC "-//W3C//DTD SVG 20010904//EN"
 "http://www.w3.org/TR/2001/REC-SVG-20010904/DTD/svg10.dtd">
<svg version="1.0" xmlns="http://www.w3.org/2000/svg"
 width="50.000000pt" height="50.000000pt" viewBox="0 0 50.000000 50.000000"
 preserveAspectRatio="xMidYMid meet">

<g transform="translate(0.000000,50.000000) scale(0.100000,-0.100000)"
fill="#ffffff" stroke="none">
<path d="M162 406 c-60 -57 -72 -65 -112 -68 l-45 -3 0 -85 0 -85 45 -3 c40
-3 52 -11 111 -68 37 -35 74 -64 83 -64 24 0 27 29 24 240 -4 235 -4 235 -106
136z m88 -156 c0 -110 -3 -200 -7 -200 -4 0 -38 30 -75 67 l-68 67 0 65 0 65
67 68 c37 38 71 68 75 68 5 0 8 -90 8 -200z m-170 0 l0 -70 -30 0 -30 0 0 70
0 70 30 0 30 0 0 -70z"/>
<path d="M310 303 c0 -4 10 -17 22 -30 l21 -23 -23 -25 c-31 -32 -17 -46 15
-15 l25 23 25 -23 c32 -31 46 -17 15 15 l-23 25 23 25 c31 32 17 46 -15 15
l-25 -23 -23 21 c-24 22 -37 28 -37 15z"/>
</g>
</svg>
