<?xml version="1.0" standalone="no"?>
<!DOCTYPE svg PUBLIC "-//W3C//DTD SVG 20010904//EN"
 "http://www.w3.org/TR/2001/REC-SVG-20010904/DTD/svg10.dtd">
<svg version="1.0" xmlns="http://www.w3.org/2000/svg"
 width="50.000000pt" height="50.000000pt" viewBox="0 0 50.000000 50.000000"
 preserveAspectRatio="xMidYMid meet">

<g transform="translate(0.000000,50.000000) scale(0.100000,-0.100000)"
fill="#ffffff" stroke="none">
<path d="M191 411 c-60 -68 -63 -70 -114 -73 l-52 -3 0 -85 0 -85 50 -3 c48
-2 53 -5 116 -74 100 -107 100 -107 97 164 -3 193 -5 223 -19 226 -9 2 -41
-26 -78 -67z m79 -163 l-1 -213 -64 70 -65 70 0 75 0 75 61 68 c33 37 63 67
65 67 2 0 4 -96 4 -212z m-150 2 l0 -70 -40 0 -40 0 0 70 0 70 40 0 40 0 0
-70z"/>
<path d="M390 381 c0 -5 7 -11 15 -14 21 -8 55 -81 55 -117 0 -37 -33 -105
-57 -119 -10 -5 -14 -13 -10 -18 5 -4 24 9 42 29 57 62 59 150 3 213 -29 34
-48 44 -48 26z"/>
<path d="M360 334 c0 -3 9 -17 20 -31 11 -14 20 -38 20 -53 0 -15 -9 -39 -20
-53 -22 -28 -25 -37 -10 -37 16 0 50 62 50 90 0 28 -34 90 -50 90 -5 0 -10 -3
-10 -6z"/>
<path d="M332 271 c11 -17 11 -25 0 -42 -11 -16 -11 -20 -1 -17 7 2 17 12 23
21 12 19 0 47 -23 55 -10 3 -10 -1 1 -17z"/>
</g>
</svg>
